<?xml version="1.0" encoding="UTF-8" standalone="no"?>
<svg width="16px" height="16px" viewBox="0 0 16 16" version="1.1" xmlns="http://www.w3.org/2000/svg" xmlns:xlink="http://www.w3.org/1999/xlink" xmlns:sketch="http://www.bohemiancoding.com/sketch/ns">
    <!-- Generator: Sketch 3.3.3 (12072) - http://www.bohemiancoding.com/sketch -->
    <title>icon-mini-gear</title>
    <desc>Created with Sketch.</desc>
    <defs></defs>
    <g id="Icons/Mini" stroke="none" stroke-width="1" fill="none" fill-rule="evenodd" sketch:type="MSPage">
        <g id="icon-mini-gear" sketch:type="MSArtboardGroup" fill="#000000">
            <path d="M8.68517647,16 L7.31576471,16 C6.896,16 6.54870588,15.68 6.50729412,15.2696471 L6.12517647,13.9981176 C5.77976471,13.888 5.43529412,13.7402353 5.09741176,13.5595294 L3.91623529,14.1957647 C3.60470588,14.4498824 3.11435294,14.4282353 2.82635294,14.1392941 L1.85976471,13.1727059 C1.70635294,13.0202353 1.62164706,12.816 1.62164706,12.5976471 C1.62164706,12.4084706 1.68564706,12.2296471 1.80423529,12.0847059 L2.44141176,10.9016471 C2.26070588,10.5637647 2.11482353,10.2202353 2.00376471,9.87576471 L0.729411765,9.49270588 C0.32,9.45129412 0,9.10494118 0,8.68423529 L0,7.31482353 C0,6.89505882 0.32,6.54870588 0.729411765,6.50729412 L2.00470588,6.12329412 C2.11482353,5.77976471 2.26070588,5.43623529 2.44141176,5.09835294 L1.80423529,3.91529412 C1.68564706,3.77035294 1.62164706,3.59058824 1.62164706,3.40141176 C1.62164706,3.184 1.70635294,2.97976471 1.85976471,2.82635294 L2.82729412,1.85882353 C3.11435294,1.57270588 3.60470588,1.54917647 3.91623529,1.80423529 L5.09741176,2.44047059 C5.43529412,2.25882353 5.77976471,2.112 6.12517647,2.00188235 L6.50729412,0.729411765 C6.54870588,0.319058824 6.896,0 7.31576471,0 L8.68517647,0 C9.10494118,0 9.45129412,0.319058824 9.49364706,0.729411765 L9.87482353,2.00188235 C10.2192941,2.112 10.5637647,2.25788235 10.9025882,2.44047059 L12.0847059,1.80423529 C12.3962353,1.54917647 12.8865882,1.57176471 13.1736471,1.85976471 L14.1411765,2.82729412 C14.2945882,2.97976471 14.3792941,3.184 14.3792941,3.40141176 C14.3792941,3.59058824 14.3152941,3.77035294 14.1967059,3.91529412 L13.5595294,5.09835294 C13.7402353,5.43623529 13.8861176,5.77976471 13.9962353,6.12329412 L15.2705882,6.50729412 C15.68,6.54870588 16,6.89505882 16,7.31482353 L16,8.68423529 C16,9.10494118 15.68,9.45129412 15.2705882,9.49270588 L13.9962353,9.87576471 C13.8861176,10.2192941 13.7402353,10.5628235 13.5595294,10.9016471 L14.1967059,12.0847059 C14.3152941,12.2296471 14.3792941,12.4084706 14.3792941,12.5976471 C14.3792941,12.816 14.2945882,13.0202353 14.1402353,13.1736471 L13.1736471,14.1402353 C12.8865882,14.4272941 12.3962353,14.4498824 12.0847059,14.1957647 L10.9025882,13.5595294 C10.5647059,13.7402353 10.2202353,13.888 9.87482353,13.9981176 L9.49364706,15.2696471 C9.45129412,15.68 9.10494118,16 8.68517647,16 L8.68517647,16 Z M8.57411765,15.0588235 C8.57411765,15.0569412 9.04658824,13.4832941 9.04658824,13.4832941 C9.09364706,13.3270588 9.21882353,13.2056471 9.376,13.1632941 C9.80517647,13.0494118 10.2371765,12.8658824 10.6607059,12.6164706 C10.8028235,12.5355294 10.9778824,12.5308235 11.1209412,12.608 L12.5788235,13.3929412 C12.5816471,13.3938824 13.3976471,12.5854118 13.3976471,12.5854118 C13.3967059,12.5835294 12.608,11.12 12.608,11.12 C12.5298824,10.976 12.5336471,10.8 12.6164706,10.6588235 C12.864,10.2362353 13.0475294,9.80517647 13.1614118,9.37694118 C13.2037647,9.21882353 13.3242353,9.09458824 13.4814118,9.04752941 L15.0522353,8.576 C15.0541176,8.57505882 15.0588235,7.42494118 15.0588235,7.42494118 C15.0569412,7.42494118 13.4814118,6.95152941 13.4814118,6.95152941 C13.3242353,6.90541176 13.2037647,6.78117647 13.1614118,6.62305882 C13.0475294,6.19482353 12.864,5.76376471 12.6164706,5.34023529 C12.5336471,5.19905882 12.5298824,5.024 12.608,4.87905882 L13.3938824,3.42117647 C13.3957647,3.41929412 12.5863529,2.60235294 12.5863529,2.60235294 C12.5835294,2.60329412 11.1209412,3.39105882 11.1209412,3.39105882 C10.9778824,3.46917647 10.8028235,3.46541176 10.6607059,3.38258824 C10.2362353,3.13411765 9.80517647,2.95058824 9.37694118,2.83670588 C9.21882353,2.79435294 9.09364706,2.67388235 9.04658824,2.51670588 L8.576,0.947764706 C8.57505882,0.945882353 7.42588235,0.941176471 7.42588235,0.941176471 C7.42588235,0.943058824 6.95341176,2.51670588 6.95341176,2.51670588 C6.90635294,2.672 6.78211765,2.79341176 6.624,2.83576471 C6.19482353,2.95058824 5.76282353,3.13411765 5.33929412,3.38258824 C5.19811765,3.46541176 5.024,3.46917647 4.87811765,3.39105882 L3.42117647,2.60611765 C3.41929412,2.60517647 2.60329412,3.41458824 2.60329412,3.41458824 C2.60423529,3.41647059 3.392,4.87905882 3.392,4.87905882 C3.47011765,5.024 3.46729412,5.19905882 3.38447059,5.34023529 C3.13694118,5.76376471 2.95341176,6.19482353 2.83858824,6.62305882 C2.79717647,6.78117647 2.67576471,6.90541176 2.51952941,6.95152941 L0.947764706,7.42305882 C0.945882353,7.424 0.941176471,8.57317647 0.941176471,8.57317647 C0.943058824,8.57411765 2.51858824,9.04752941 2.51858824,9.04752941 C2.67576471,9.09458824 2.79623529,9.21882353 2.83858824,9.37694118 C2.95341176,9.80705882 3.13694118,10.2381176 3.38352941,10.6588235 C3.46729412,10.8 3.47011765,10.9750588 3.392,11.12 L2.60611765,12.5788235 C2.60517647,12.5807059 3.41458824,13.3967059 3.41458824,13.3967059 C3.41647059,13.3957647 4.87811765,12.608 4.87811765,12.608 C5.024,12.5308235 5.19811765,12.5355294 5.33929412,12.6164706 C5.76282353,12.8658824 6.19482353,13.0494118 6.624,13.1632941 C6.78211765,13.2056471 6.90635294,13.3270588 6.95341176,13.4832941 L7.424,15.0522353 C7.42494118,15.0541176 8.57411765,15.0588235 8.57411765,15.0588235 Z" id="Imported-Layers" sketch:type="MSShapeGroup"></path>
            <path d="M8,11 C9.65685425,11 11,9.65685425 11,8 C11,6.34314575 9.65685425,5 8,5 C6.34314575,5 5,6.34314575 5,8 C5,9.65685425 6.34314575,11 8,11 L8,11 Z M8,10 C9.1045695,10 10,9.1045695 10,8 C10,6.8954305 9.1045695,6 8,6 C6.8954305,6 6,6.8954305 6,8 C6,9.1045695 6.8954305,10 8,10 L8,10 Z" id="Oval" sketch:type="MSShapeGroup"></path>
        </g>
    </g>
</svg>