<?xml version="1.0" encoding="UTF-8" standalone="no"?>
<svg width="16px" height="16px" viewBox="0 0 16 16" version="1.1" xmlns="http://www.w3.org/2000/svg" xmlns:xlink="http://www.w3.org/1999/xlink" xmlns:sketch="http://www.bohemiancoding.com/sketch/ns">
  <path fill="#f33745" d="M6.5241611,2.69008695 C7.39163501,1.10247883 8.6072347,1.10249712 9.47469862,2.69008695 L14.4178295,11.7367621 C15.2920341,13.3366884 14.5977806,14.5 12.768045,14.5 L3.23081474,14.5 C1.39934335,14.5 0.706322263,13.3376097 1.58103025,11.7367621 L6.5241611,2.69008695 L6.5241611,2.69008695 L6.5241611,2.69008695 Z" id="Shape" sketch:type="MSShapeGroup"></path>
  <path fill="#ffffff" d="M7.25,4 L8.75,4 L8.75,10 L7.25,10 L7.25,4 L7.25,4 Z M8,13 C8.41421356,13 8.75,12.6642136 8.75,12.25 C8.75,11.8357864 8.41421356,11.5 8,11.5 C7.58578644,11.5 7.25,11.8357864 7.25,12.25 C7.25,12.6642136 7.58578644,13 8,13 L8,13 Z" id="Rectangle-553" sketch:type="MSShapeGroup"></path>
</svg>
