<?xml version="1.0" encoding="UTF-8" standalone="no"?>
<svg width="16px" height="16px" viewBox="0 0 16 16" version="1.1" xmlns="http://www.w3.org/2000/svg" xmlns:xlink="http://www.w3.org/1999/xlink" xmlns:sketch="http://www.bohemiancoding.com/sketch/ns">
    <!-- Generator: Sketch 3.3.3 (12072) - http://www.bohemiancoding.com/sketch -->
    <title>icon-mini-suspended</title>
    <desc>Created with Sketch.</desc>
    <defs></defs>
    <g id="Icons/Mini" stroke="none" stroke-width="1" fill="none" fill-rule="evenodd" sketch:type="MSPage">
        <g id="icon-mini-suspended" sketch:type="MSArtboardGroup" fill="#000000">
            <path d="M12.5153062,2.59779106 L13.4093097,3.49179451 L3.49180714,13.4093097 L2.59780368,12.5153062 L12.5153062,2.59779106 Z" id="Line" sketch:type="MSShapeGroup" transform="translate(8.003557, 8.003550) rotate(-270.000000) translate(-8.003557, -8.003550) "></path>
            <path d="M8,0 C12.4092877,0 16,3.581722 16,8 C16,12.4092877 12.418278,16 8,16 C3.59071231,16 0,12.418278 0,8 C0,3.59071231 3.581722,0 8,0 Z M1,8 C1,11.8627169 4.13971843,15 8,15 C9.9351845,15 11.6882913,14.2119574 12.956044,12.9400673 C14.2187837,11.6732065 15,9.92631713 15,8 C15,4.13728312 11.8602816,1 8,1 C4.13728312,1 1,4.13971843 1,8 Z" id="Shape" sketch:type="MSShapeGroup"></path>
        </g>
    </g>
</svg>