<?xml version="1.0" encoding="UTF-8" standalone="no"?>
<svg width="16px" height="16px" viewBox="0 0 16 16" version="1.1" xmlns="http://www.w3.org/2000/svg" xmlns:xlink="http://www.w3.org/1999/xlink" xmlns:sketch="http://www.bohemiancoding.com/sketch/ns">
    <!-- Generator: Sketch 3.3.3 (12072) - http://www.bohemiancoding.com/sketch -->
    <title>icon-mini-folder</title>
    <desc>Created with Sketch.</desc>
    <defs></defs>
    <g id="Icons/Mini" stroke="none" stroke-width="1" fill="none" fill-rule="evenodd" sketch:type="MSPage">
        <g id="icon-mini-folder" sketch:type="MSArtboardGroup" fill="#000000">
            <path d="M15.5,3 L7.547,3 C7.547,3 7.418,2.689 7.353,2.534 C7.312,2.434 7.229,2.236 7.229,2.236 C6.946,1.563 6.42,1 5.488,1.004 C4.555,1.007 5.415,1 5.378,1 L0.5,1 C0.232,1 0,1.223 0,1.498 L0,14.502 C0,14.78 0.224,15 0.5,15 L15.5,15 C15.768,15 16,14.776 16,14.5 L16,3.5 C16,3.229 15.776,3 15.5,3 L15.5,3 Z" id="Folder" sketch:type="MSShapeGroup"></path>
        </g>
    </g>
</svg>