<?xml version="1.0" encoding="UTF-8" standalone="no"?>
<svg width="16px" height="16px" viewBox="0 0 16 16" version="1.1" xmlns="http://www.w3.org/2000/svg" xmlns:xlink="http://www.w3.org/1999/xlink" xmlns:sketch="http://www.bohemiancoding.com/sketch/ns">
  <style>
    path:hover {
      fill: #fff;
    }
  </style>
  <path fill="#898D98" d="M14.7689986,3.99455775 C14.0646566,2.78779767 13.1091685,1.83230957 11.9024084,1.12796755 C10.6953965,0.423625527 9.37772935,0.0715174603 7.94852561,0.0715174603 C6.51944775,0.0715174603 5.20140289,0.423625527 3.99464282,1.12796755 C2.78775685,1.83218368 1.83226875,2.78767179 1.12792673,3.99455775 C0.42345882,5.20144371 0.071350753,6.51948857 0.071350753,7.94844054 C0.071350753,9.3775184 0.423584707,10.6953115 1.12780084,11.9023233 C1.83214286,13.1089575 2.78763097,14.0645715 3.99451693,14.7689135 C5.20140289,15.4732555 6.51932186,15.8253636 7.94839972,15.8253636 C9.37747758,15.8253636 10.6955224,15.4732555 11.9022825,14.7689135 C13.1090426,14.0646974 14.0645307,13.1090834 14.7688727,11.9023233 C15.4730888,10.6954374 15.8251969,9.37739251 15.8251969,7.94844054 C15.8251969,6.51936268 15.4730888,5.20131782 14.7689986,3.99455775 L14.7689986,3.99455775 Z M9.26140906,12.8715332 C9.26140906,12.9672079 9.23044067,13.0458877 9.16900745,13.107321 C9.10770011,13.1687542 9.02902026,13.1994708 8.93334556,13.1994708 L6.96395743,13.1994708 C6.86828273,13.1994708 6.78960288,13.1687542 6.72804377,13.107321 C6.66648465,13.0458877 6.63576804,12.9672079 6.63576804,12.8715332 L6.63576804,10.9021451 C6.63576804,10.8064704 6.66648465,10.7277905 6.72804377,10.6662314 C6.78960288,10.6049241 6.86828273,10.5742075 6.96395743,10.5742075 L8.93334556,10.5742075 C9.02902026,10.5742075 9.10770011,10.6049241 9.16900745,10.6662314 C9.23044067,10.7277905 9.26140906,10.8064704 9.26140906,10.9021451 L9.26140906,12.8715332 L9.26140906,12.8715332 Z M11.7587705,6.80991163 C11.6732927,7.06294603 11.577618,7.26990551 11.4716205,7.43053829 C11.365623,7.59117107 11.2134247,7.75532871 11.0150256,7.92275943 C10.8170041,8.09031604 10.6596444,8.2100353 10.5431982,8.28191722 C10.4271297,8.35354735 10.2594472,8.45111037 10.0407802,8.57410271 C9.81518932,8.70401888 9.62900132,8.87321203 9.48209031,9.08180805 C9.3350534,9.29027818 9.26153495,9.45959722 9.26153495,9.5893875 C9.26153495,9.68518808 9.23056656,9.76386793 9.16913333,9.82530116 C9.10782599,9.88686028 9.02914614,9.91757689 8.93347145,9.91757689 L6.96408332,9.91757689 C6.86840862,9.91757689 6.78972877,9.88686028 6.72816965,9.82530116 C6.66661054,9.76386793 6.63589392,9.68518808 6.63589392,9.5893875 L6.63589392,9.22003281 C6.63589392,8.76192725 6.81528398,8.33277587 7.17431588,7.93283045 C7.53334777,7.53275915 7.92825768,7.2370488 8.35904559,7.04557352 C8.6871091,6.89526353 8.91962379,6.7413028 9.0563379,6.58406899 C9.19330378,6.42683517 9.26166084,6.21811327 9.26166084,5.95840682 C9.26166084,5.73269006 9.13325532,5.53101787 8.87682195,5.35313846 C8.62038858,5.17538494 8.32832898,5.08650818 8.0000137,5.08650818 C7.64438078,5.08650818 7.35043285,5.168587 7.11791816,5.33274464 C6.89220141,5.4967764 6.59825348,5.81136991 6.23582262,6.27627341 C6.17426351,6.35835223 6.08878572,6.39951753 5.97938925,6.39951753 C5.89731043,6.39951753 5.83235235,6.37899782 5.784515,6.3380843 L4.43071802,5.31247672 C4.27348421,5.18935849 4.24616656,5.04584644 4.3486392,4.8816888 C5.2239368,3.42529329 6.49225599,2.6970326 8.15372266,2.6970326 C8.7487941,2.6970326 9.33001789,2.83727156 9.89751992,3.11762361 C10.4650219,3.39784976 10.9384858,3.7945221 11.3181633,4.30738883 C11.6973372,4.82012968 11.8873019,5.3774348 11.8873019,5.9791783 C11.8869242,6.28005004 11.8439965,6.55687723 11.7587705,6.80991163 L11.7587705,6.80991163 Z"></path>
</svg>
