<?xml version="1.0" encoding="UTF-8" standalone="no"?>
<svg width="16px" height="16px" viewBox="0 0 16 16" version="1.1" xmlns="http://www.w3.org/2000/svg" xmlns:xlink="http://www.w3.org/1999/xlink" xmlns:sketch="http://www.bohemiancoding.com/sketch/ns">
    <!-- Generator: Sketch 3.3.3 (12072) - http://www.bohemiancoding.com/sketch -->
    <title>icon-mini-delayed</title>
    <desc>Created with Sketch.</desc>
    <defs></defs>
    <g id="Icons/Mini" stroke="none" stroke-width="1" fill="none" fill-rule="evenodd" sketch:type="MSPage">
        <g id="icon-mini-delayed" sketch:type="MSArtboardGroup" fill="#000000">
            <path d="M8,0 C12.4092877,0 16,3.581722 16,8 C16,12.4092877 12.418278,16 8,16 C3.59071231,16 0,12.418278 0,8 C0,3.59071231 3.581722,0 8,0 Z M8,1 C4.13728312,1 1,4.13971843 1,8 C1,11.8627169 4.13971843,15 8,15 C11.8627169,15 15,11.8602816 15,8 C15,4.13728312 11.8602816,1 8,1 Z" id="Circle" sketch:type="MSShapeGroup"></path>
            <path d="M11.0885324,4.01746455 L11.9825358,4.91146801 L8.894004,7.99999971 L11.982536,11.0885318 L11.0885325,11.9825353 L8.00000053,8.89400315 L8.00000053,8.89400315 L4.91146788,11.9825357 L4.01746442,11.0885322 L7.10599709,7.99999968 L4.01746486,4.91146733 L4.91146831,4.01746387 L8.00000056,7.10599624 L11.0885324,4.01746455 Z" id="Mask" sketch:type="MSShapeGroup"></path>
        </g>
    </g>
</svg>