<?xml version="1.0" encoding="utf-8"?>
<!-- Generator: Adobe Illustrator 19.1.0, SVG Export Plug-In . SVG Version: 6.00 Build 0)  -->
<svg version="1.1" id="Icon" xmlns="http://www.w3.org/2000/svg" xmlns:xlink="http://www.w3.org/1999/xlink" x="0px" y="0px"
	 viewBox="0 0 24 24" style="enable-background:new 0 0 24 24;" xml:space="preserve">
<style type="text/css">
	.st0{fill:#FFFFFF;}
</style>
<path class="st0" d="M21.9,17.8C21.9,17.7,22,17.7,21.9,17.8c0.1-0.1,0.1-0.1,0.1-0.1c0,0,0-0.1,0-0.1c0,0,0,0,0,0v-11c0,0,0,0,0,0
	c0,0,0,0,0,0c0,0,0,0,0,0c0-0.1,0-0.1,0-0.1c0,0,0,0,0-0.1c0,0-0.1-0.1-0.1-0.1c0,0,0,0,0,0l-9.5-5.5c0,0,0,0,0,0c0,0-0.1,0-0.1,0
	c0,0-0.1,0-0.1,0c0,0-0.1,0-0.1,0c0,0-0.1,0-0.1,0c0,0,0,0-0.1,0c0,0-0.1,0-0.1,0c0,0,0,0,0,0L2.2,6.1c0,0,0,0,0,0
	c0,0-0.1,0.1-0.1,0.1c0,0,0,0,0,0.1c0,0,0,0.1,0,0.1c0,0,0,0,0,0.1c0,0,0,0,0,0c0,0,0,0,0,0v11c0,0,0,0,0,0.1c0,0,0,0,0,0.1
	c0,0,0,0,0,0c0,0,0,0.1,0,0.1c0,0,0,0,0,0c0,0,0,0,0,0c0,0,0.1,0.1,0.1,0.1c0,0,0,0,0,0c0,0,0,0,0,0c0,0,0,0,0,0l9.5,5.5
	c0,0,0,0,0,0c0.1,0,0.2,0.1,0.2,0.1c0.1,0,0.2,0,0.2-0.1c0,0,0,0,0,0l0,0l9.5-5.5c0,0,0,0,0,0c0,0,0.1,0,0.1-0.1
	C21.9,17.8,21.9,17.8,21.9,17.8C21.9,17.8,21.9,17.8,21.9,17.8z M12,1.9l5,7.1H6.9L12,1.9z M3,7.6l2.3,2L3,15V7.6z M6,10.6l5,7.8
	l-7.8-1.2L6,10.6z M6.8,10H17l-5,8.1L6.8,10z M17.8,10.6l2.9,6.5L13,18.3L17.8,10.6z M18.5,9.6L21,7.6v7.6L18.5,9.6z M20.6,6.6
	L18,8.8l-4.3-6.2L20.6,6.6z M10.2,2.6L5.8,8.8L3.4,6.6L10.2,2.6z M5.1,18.4l6.4,1v2.7L5.1,18.4z M12.5,22.1v-2.7l6.4-1L12.5,22.1z"
	/>
</svg>
