<?xml version="1.0" encoding="UTF-8" standalone="no"?>
<svg width="16px" height="16px" viewBox="0 0 16 16" version="1.1" xmlns="http://www.w3.org/2000/svg" xmlns:xlink="http://www.w3.org/1999/xlink" xmlns:sketch="http://www.bohemiancoding.com/sketch/ns">
    <!-- Generator: Sketch 3.3.3 (12072) - http://www.bohemiancoding.com/sketch -->
    <title>icon-mini-running</title>
    <desc>Created with Sketch.</desc>
    <defs></defs>
    <g id="Icons/Mini" stroke="none" stroke-width="1" fill="none" fill-rule="evenodd" sketch:type="MSPage">
        <g id="icon-mini-running" sketch:type="MSArtboardGroup" fill="#000000">
            <path d="M8,0 L8,0 C12.4092877,0 16,3.581722 16,8 C16,12.4092877 12.418278,16 8,16 C3.59071231,16 0,12.418278 0,8 C0,3.59071231 3.581722,0 8,0 L8,0 Z M8,1 L8,1 C4.13728312,1 1,4.13971843 1,8 C1,11.8627169 4.13971843,15 8,15 C11.8627169,15 15,11.8602816 15,8 C15,4.13728312 11.8602816,1 8,1 L8,1 Z" id="Shape" sketch:type="MSShapeGroup"></path>
            <path d="M1.38785401,10.3457845 C2.12780168,10.081964 2.69420951,9.46548864 3.422709,8.38850724 C3.45454288,8.34141328 3.45454288,8.34141328 3.48613298,8.29461622 C4.41179075,6.92313292 4.88785079,6.5 5.7996625,6.5 C6.71148406,6.5 7.18758104,6.92314069 8.11331816,8.29460309 C9.20156074,9.90686939 9.86574999,10.5 11.199595,10.5 C12.5021443,10.5 13.2040102,9.89439654 14.2226404,8.38850849 C14.2544749,8.34141391 14.2544749,8.34141391 14.2860655,8.29461622 C14.5472084,7.90769876 14.7725771,7.59625674 14.9820507,7.34849996 C15.5150496,6.71809064 15.3055271,5.68268855 14.784985,6.12030487 C14.3611711,6.47660246 13.9521142,7.00188804 13.4572126,7.73514964 C13.4257324,7.78178377 13.4257324,7.78178377 13.394342,7.82822128 C12.5494199,9.07730864 12.0595405,9.5 11.199595,9.5 C10.3185149,9.5 9.85254068,9.0838783 8.94217127,7.7351368 C7.8392477,6.10117596 7.16283425,5.5 5.7996625,5.5 C4.43648015,5.5 3.76009228,6.10118883 2.65728007,7.73514964 C2.62579949,7.78178439 2.62579949,7.78178439 2.5944089,7.82822254 C2.00943642,8.69301996 1.59469811,9.16167611 1.10955061,9.36820252 C0.893937144,9.45998878 1.09312616,10.4508666 1.38785401,10.3457845 Z" id="Shape" sketch:type="MSShapeGroup"></path>
        </g>
    </g>
</svg>