<?xml version="1.0" encoding="UTF-8" standalone="no"?>
<svg width="16px" height="16px" viewBox="0 0 16 16" version="1.1" xmlns="http://www.w3.org/2000/svg" xmlns:xlink="http://www.w3.org/1999/xlink" xmlns:sketch="http://www.bohemiancoding.com/sketch/ns">
    <!-- Generator: Sketch 3.4.4 (17249) - http://www.bohemiancoding.com/sketch -->
    <title>Icon - Warning</title>
    <desc>Created with Sketch.</desc>
    <defs></defs>
    <g id="App-View" stroke="none" stroke-width="1" fill="none" fill-rule="evenodd" sketch:type="MSPage">
        <g id="App-View-[Logs-Error]" sketch:type="MSArtboardGroup" transform="translate(-903.000000, -536.000000)">
            <g id="Page-Content" sketch:type="MSLayerGroup" transform="translate(1.000000, 48.000000)">
                <g id="Section" transform="translate(14.000000, 258.000000)" sketch:type="MSShapeGroup">
                    <g id="Section-Content" transform="translate(0.000000, 100.000000)">
                        <g id="Section-Table">
                            <g id="Table-Content" transform="translate(0.000000, 42.000000)">
                                <g id="Row---Sick" transform="translate(0.423558, 64.000000)">
                                    <g id="Cell---Error-Log" transform="translate(872.000000, 1.000000)">
                                        <g id="Icon---Warning" transform="translate(15.576442, 23.000000)">
                                            <polygon id="Triangle-1" stroke="#E4F342" points="7.99942986 -1.05264444 16.7706437 15 -0.771783949 15 "></polygon>
                                            <path d="M7.25,4 L8.75,4 L8.75,10 L7.25,10 L7.25,4 Z M8,13 C8.41421356,13 8.75,12.6642136 8.75,12.25 C8.75,11.8357864 8.41421356,11.5 8,11.5 C7.58578644,11.5 7.25,11.8357864 7.25,12.25 C7.25,12.6642136 7.58578644,13 8,13 Z" id="Rectangle-553" fill="#E4F342"></path>
                                        </g>
                                    </g>
                                </g>
                            </g>
                        </g>
                    </g>
                </g>
            </g>
        </g>
    </g>
</svg>