<?xml version="1.0" encoding="UTF-8" standalone="no"?>
<svg width="16px" height="16px" viewBox="0 0 16 16" version="1.1" xmlns="http://www.w3.org/2000/svg" xmlns:xlink="http://www.w3.org/1999/xlink" xmlns:sketch="http://www.bohemiancoding.com/sketch/ns">
    <!-- Generator: Sketch 3.3.3 (12072) - http://www.bohemiancoding.com/sketch -->
    <title>icon-mini-folder-stroke</title>
    <desc>Created with Sketch.</desc>
    <defs></defs>
    <g id="Icons/Mini" stroke="none" stroke-width="1" fill="none" fill-rule="evenodd" sketch:type="MSPage">
        <g id="icon-mini-folder-stroke" sketch:type="MSArtboardGroup" fill="#000000">
            <path d="M7.547,3 L15.5,3 C15.776,3 16,3.229 16,3.5 L16,14.5 C16,14.776 15.768,15 15.5,15 L0.5,15 C0.224,15 0,14.78 0,14.502 L0,1.498 C0,1.223 0.232,1 0.5,1 C0.5,1 4.555,1.007 5.488,1.004 C6.42,1 6.946,1.563 7.229,2.236 L7.547,3 Z" id="Background" fill-opacity="0.4" sketch:type="MSShapeGroup"></path>
            <path d="M15,13.9997559 L15,14.9997559 L1,14.9997559 L1,13.9997559 L15,13.9997559 L15,13.9997559 Z" id="Bottom" sketch:type="MSShapeGroup"></path>
            <rect id="Right" sketch:type="MSShapeGroup" x="15" y="3" width="1" height="12"></rect>
            <path d="M5.37852701,2 C6.03143311,2 6.16621978,2.28795797 6.3072729,2.62350117 L6.75718115,3.69376217 L6.8859151,4 L7.21811088,4 L15,4 L15,3 L7.546875,3 C7.546875,3 7.41760583,2.6891678 7.35297125,2.5337517 C7.31169162,2.43449341 7.22913237,2.23597683 7.22913237,2.23597683 C6.94636694,1.56332233 6.42041016,1 5.48761088,1.00360898 C4.5548116,1.00721795 5.41481849,1 5.37852701,1 L1,1 L1,2 L5.37852701,2 Z" id="Top" sketch:type="MSShapeGroup"></path>
            <rect id="Left" sketch:type="MSShapeGroup" x="0" y="1" width="1" height="14"></rect>
        </g>
    </g>
</svg>