<?xml version="1.0" encoding="UTF-8" standalone="no"?>
<svg width="24px" height="24px" viewBox="0 0 24 24" version="1.1" xmlns="http://www.w3.org/2000/svg" xmlns:xlink="http://www.w3.org/1999/xlink" xmlns:sketch="http://www.bohemiancoding.com/sketch/ns">
    <!-- Generator: Sketch 3.3.3 (12072) - http://www.bohemiancoding.com/sketch -->
    <title>icon-small-app</title>
    <desc>Created with Sketch.</desc>
    <defs>
        <linearGradient x1="0%" y1="0%" x2="101.999998%" y2="100.999999%" id="linearGradient-1">
            <stop stop-color="#7F32DF" offset="0%"></stop>
            <stop stop-color="#E82978" offset="100%"></stop>
        </linearGradient>
    </defs>
    <g id="Icons/Small" stroke="none" stroke-width="1" fill="none" fill-rule="evenodd" sketch:type="MSPage">
        <g id="icon-small-app" sketch:type="MSArtboardGroup">
            <g id="Icon" sketch:type="MSLayerGroup">
                <g id="Imported-Layers" transform="translate(2.000000, 1.000000)" sketch:type="MSShapeGroup">
                    <path d="M10,0 L20,5.5 L20,16.5 L10,22 L0,16.5 L0,5.5 L10,0" id="Fill-1" fill="url(#linearGradient-1)"></path>
                    <path d="M10,0 L20,5.5 L16,7 L10,0" id="Fill-2" opacity="0.129999995" fill="#000000"></path>
                    <path d="M10,0 L0,5.5 L4,7 L10,0" id="Fill-3" opacity="0.299999982" fill="#0A0B09"></path>
                    <path d="M10,0 L4,7 L16,7 L10,0" id="Fill-4" opacity="0.049999997" fill="#0A0B09"></path>
                    <path d="M10,22 L20,16.5 L10,18 L10,22" id="Fill-5" opacity="0.150000006" fill="#FFFFFF"></path>
                    <path d="M10,22 L0,16.5 L10,18 L10,22" id="Fill-6" opacity="0.049999997" fill="#0A0B09"></path>
                    <path d="M10,18 L4,7 L16,7 L10,18" id="Fill-7" opacity="0.0500000007" fill="#FFFFFF"></path>
                    <path d="M0,16.5 L0,5.5 L4,7 L0,16.5" id="Fill-8" opacity="0.219999999" fill="#0A0B09"></path>
                    <path d="M4,7 L10,18 L0,16.5 L4,7" id="Fill-9" opacity="0.149999991" fill="#0A0B09"></path>
                    <path d="M20,16.5 L20,5.5 L16,7 L20,16.5" id="Fill-10" opacity="0" fill="#FFFFFF"></path>
                    <path d="M16,7 L10,18 L20,16.5 L16,7" id="Fill-11" opacity="0.199999988" fill="#FFFFFF"></path>
                </g>
            </g>
        </g>
    </g>
</svg>