<?xml version="1.0" encoding="UTF-8" standalone="no"?>
<svg width="16px" height="16px" viewBox="0 0 16 16" version="1.1" xmlns="http://www.w3.org/2000/svg" xmlns:xlink="http://www.w3.org/1999/xlink" xmlns:sketch="http://www.bohemiancoding.com/sketch/ns">
    <!-- Generator: Sketch 3.4.4 (17249) - http://www.bohemiancoding.com/sketch -->
    <title>icon-warning</title>
    <desc>Created with Sketch.</desc>
    <defs></defs>
    <g id="Icons/Mini" stroke="none" stroke-width="1" fill="none" fill-rule="evenodd" sketch:type="MSPage">
        <g id="icon-warning" sketch:type="MSArtboardGroup" fill="#FEDF57">
            <g sketch:type="MSLayerGroup">
                <path d="M6.5241611,2.69008695 C7.39163501,1.10247883 8.6072347,1.10249712 9.47469862,2.69008695 L14.4178295,11.7367621 C15.2920341,13.3366884 14.5977806,14.5 12.768045,14.5 L3.23081474,14.5 C1.39934335,14.5 0.706322263,13.3376097 1.58103025,11.7367621 L6.5241611,2.69008695 L6.5241611,2.69008695 L6.5241611,2.69008695 Z M0.703484813,11.2572686 C-0.535939403,13.5256019 0.641203495,15.5 3.23081474,15.5 L12.768045,15.5 C15.3556833,15.5 16.5344103,13.5248904 15.2953749,11.2572686 L10.3522441,2.21059346 C9.10557578,-0.0709975557 6.89330213,-0.0710308341 5.64661567,2.21059346 L0.703484813,11.2572686 Z" id="Shape" sketch:type="MSShapeGroup"></path>
                <path d="M7.25,4 L8.75,4 L8.75,10 L7.25,10 L7.25,4 L7.25,4 Z M8,13 C8.41421356,13 8.75,12.6642136 8.75,12.25 C8.75,11.8357864 8.41421356,11.5 8,11.5 C7.58578644,11.5 7.25,11.8357864 7.25,12.25 C7.25,12.6642136 7.58578644,13 8,13 L8,13 Z" id="Rectangle-553" sketch:type="MSShapeGroup"></path>
            </g>
        </g>
    </g>
</svg>